# xmcd
#
# Track frame offsets:
#	150
#	18465
#	31613
#	42308
#	54241
#	69294
#	80222
#	90707
#	101882
#	112952
#	125102
#	135917
#
# Disc length: 1973 seconds
#
# Revision: 1
# Processed by: cddbd v1.5.2PL0 Copyright (c) Steve Scherf et al.
# Submitted via: audiograbber 1.83.01
#
DISCID=9807b30c
DTITLE=Bill Anderson - From This Pen
DYEAR=1965
DGENRE=Country
TTITLE0=Saginaw Michigan
TTITLE1=City Lights
TTITLE2=Once A Day
TTITLE3=I Missed Me
TTITLE4=Mama Sang A Song
TTITLE5=That's What It's Like To Be Lonesome
TTITLE6=Riverboat
TTITLE7=The Tip Of My Fingers
TTITLE8=I've Enjoyed As Much Of This As I Can Stand
TTITLE9=Po' Folks
TTITLE10=I Don't Love You Anymore
TTITLE11=Still
EXTD=
EXTT0=
EXTT1=
EXTT2=
EXTT3=
EXTT4=
EXTT5=
EXTT6=
EXTT7=
EXTT8=
EXTT9=
EXTT10=
EXTT11=
PLAYORDER=
